<?xml version="1.0" encoding="utf-8"?>
<!-- Generator: Adobe Illustrator 16.0.3, SVG Export Plug-In . SVG Version: 6.00 Build 0)  -->
<!DOCTYPE svg PUBLIC "-//W3C//DTD SVG 1.1//EN" "http://www.w3.org/Graphics/SVG/1.1/DTD/svg11.dtd">
<svg version="1.1" xmlns="http://www.w3.org/2000/svg" xmlns:xlink="http://www.w3.org/1999/xlink" x="0px" y="0px"
	 width="286.058px" height="286.059px" viewBox="0 0 286.058 286.059" enable-background="new 0 0 286.058 286.059"
	 xml:space="preserve">
<symbol  id="Deleted_Symbol" viewBox="-201.1 -217.78 402.199 435.56">
	<g>
		<g>
			<g>
				<path fill="#8A1002" d="M-23.423,187.322c0,4.554,0,9.107,0,13.667c0,0,6.404-3.036,23.626-3.036
					c17.213,0,23.624,3.036,23.624,3.036c0-4.56,0-9.113,0-13.667c0,0-6.411,2.963-23.624,2.963
					C-17.019,190.285-23.423,187.322-23.423,187.322z"/>
			</g>
		</g>
		<g>
			<g>
				<path fill="#8A1002" d="M-6.636,217.779c4.554,0,9.113,0,13.67,0c0,0-3.037-6.407-3.037-23.626
					c0-17.216,3.037-23.624,3.037-23.624c-4.557,0-9.116,0-13.67,0c0,0,2.966,6.408,2.966,23.624
					C-3.67,211.372-6.636,217.779-6.636,217.779z"/>
			</g>
		</g>
	</g>
	<g>
		<path fill="#8A1002" d="M182.265,105.848c-0.002,2.699-10.547-1.309-10.545-4.002c0.043-41.764-0.068-73.522-0.027-115.285
			c0.049-49.431-0.004-150.564-0.012-171.337c-19.545,5.021-39.902,9.351-59.807,9.962c-38.172,1.173-81.244-9.608-111.141-35.49
			c-0.113-0.098-0.221-0.199-0.333-0.298c-27.948,24.454-67.217,35.16-103.021,35.619c-22.817,0.293-46.112-4.169-68.581-9.197
			c-0.036,40.758-0.072,83.295-0.108,123.951c-0.047,54.301,0.113,159.014,0.111,162.073c-0.002,2.699-10.666,6.697-10.664,4.002
			c0.037-41.781,0.074-77.559,0.111-119.339c0.049-54.302-0.113-171.021-0.111-174.078c0.002-2.434,6.818-1.922,8.088-1.616
			c20.586,4.951,42.197,7.061,63.314,7.438c36.967,0.661,78.402-7.407,105.85-34.487c2.084-2.058,7.943-2.058,10.027,0
			c27.838,27.471,68.93,35.685,106.457,34.679c20.874-0.56,42.342-3.149,62.565-8.55c1.262-0.338,7.828-0.796,7.826,1.615
			c-0.043,41.763-0.084,85.527-0.125,127.29C182.085-6.699,182.269,102.667,182.265,105.848z"/>
		<g>
			<g>
				<g>
					<path fill="#8A1002" d="M-201.041,123.094c-0.002-42.471-0.02-280.994-0.02-282.674c0-2.696,10.4-6.699,10.4-4.002
						c0.002,42.472,0.02,284.996,0.02,286.676C-190.641,125.79-201.039,125.791-201.041,123.094L-201.041,123.094z"/>
				</g>
				<path fill="#8A1002" d="M-68.559,173.539c-26.188,0-42.922-13.369-64.072-29.215c-21.836-16.36-41.563-20.814-68.469-18.064
					v-3.993c26.906-4.382,52.955,0.245,74.371,16.495c19.5,14.796,33.58,31.173,58.215,31.173c12.58,0,20.996-12.831,20.996-20.67
					c0-5.461-1.467-16.461-13.641-16.461c-10.652,0-13.736,12.958-9.404,20.125c-15.707,0-16.55-24.325,9.598-24.325
					c11.197,0,22.73,6.5,22.73,20C-38.234,157.687-44.678,173.539-68.559,173.539z"/>
			</g>
			<g>
				<g>
					<path fill="#8A1002" d="M201.041,123.094c0.002-42.471,0.02-280.994,0.02-282.674c0-2.696-10.4-6.699-10.4-4.002
						c-0.002,42.472-0.02,284.996-0.02,286.676C190.64,125.79,201.039,125.791,201.041,123.094L201.041,123.094z"/>
				</g>
				<path fill="#8A1002" d="M68.559,173.539c26.188,0,42.922-13.369,64.072-29.215c21.836-16.36,41.563-20.814,68.469-18.064v-3.993
					c-26.906-4.382-52.955,0.245-74.371,16.495c-19.5,14.796-33.58,31.173-58.214,31.173c-12.58,0-20.996-12.831-20.996-20.67
					c0-5.461,1.467-16.461,13.641-16.461c10.652,0,13.736,12.958,9.404,20.125c15.707,0,16.55-24.325-9.598-24.325
					c-11.197,0-22.73,6.5-22.73,20C38.234,157.687,44.678,173.539,68.559,173.539z"/>
			</g>
		</g>
	</g>
	<g>
		<g>
			<path fill="#8A1002" d="M87.138,101.554c-24.25,0-40.324-18.495-45.666-24.292C34.499,69.699-105.355-115.84-98.07-105.779
				c-11.042-13.584-21.572-19.043-31.886-22.168l0.052-1.936c26.959,0,46.125,19.854,49.459,24.187
				C-70.075-92.218,15.171,22.168,48.84,64.441c4.869,6.113,9.556,12.202,14.879,17.783c2.116,2.219,13.231,14.829,23.253,14.829
				c11,0,18.041-8.601,18.041-17.125c0-9.25-5-18.875-15.874-21.292c-10.329-2.295-18.829,3.198-20.417,4.834
				c0,0-10.435-2.932-10.441-3.027c5.941-5.307,22.046-8.422,31.524-6.807c14.667,2.5,27.585,12.292,27.585,27.167
				C117.39,90.814,107.305,101.554,87.138,101.554z"/>
		</g>
		<g>
			<path fill="#8A1002" d="M-42.657-6.033c-6.437,12.1-29.052,58.514-38.711,78.215c-6.494,13.247-15.351,18.282-22.071,19.875
				c-4.617,1.094-27.462-0.018-32.876-0.036v-0.363c6.938-2.932,20.762-18.272,26.12-29.862
				c3.605-7.799,25.234-52.141,32.741-66.354c7.467-14.138,23.875-19.281,30.834-20.138c5.532-0.681,11.451-0.17,17.008-0.17
				c1.168,0,2.369,0.042,3.583,0.096v3.53C-32.984-18.263-38.729-13.418-42.657-6.033z"/>
		</g>
		<g>
			<path fill="#8A1002" d="M96.325-63.527c-1.831,0.73-3.604,1.634-5.311,2.756c-3.792,2.492-5.721,6.113-7.777,10.01
				c-4.755,9.014-18.16,35.273-25.104,49.696c-4.606,9.567-13.584,18.899-22.672,19.372c-10.66,0.555-21.579-1.121-32.144,0
				C8.369,17.771,21.87,7.203,30.021-7.443c2.578-4.635,15.602-35.188,24.188-47.038C64.63-68.867,83.293-65.73,96.325-65.73
				V-63.527z"/>
		</g>
		<polygon fill="#8A1002" points="12.862,-113.829 -13.804,-113.829 -13.804,149.45 12.862,149.45 		"/>
		<path fill="#8A1002" d="M-21.743-126.341"/>
		<path fill="#8A1002" d="M-61.987,57.179"/>
		<path fill="#8A1002" d="M60.219,92.771"/>
		<path fill="#8A1002" d="M150.097,18.322l-20.041,0.018v-1.122c10.209-5.874-5.072-28.126-13.025-38.667h-0.139
			c-26.52-34.922-64.872-85.61-87.249-114.763c-4.759-6.199-9.556-12.202-14.879-17.782c-2.116-2.219-13.231-14.83-23.253-14.83
			c-11,0-18.041,8.602-18.041,17.125c0,9.25,5,18.875,15.874,21.292c10.329,2.296,18.829-3.198,20.417-4.833
			c0,0,10.435,2.932,10.441,3.027c-5.941,5.307-22.046,8.422-31.524,6.806c-14.667-2.5-27.585-12.292-27.585-27.167
			c0-10.01,10.085-20.75,30.252-20.75c24.25,0,40.324,18.495,45.666,24.292c2.604,2.823,62.609,82.528,96.955,127.583h-0.057
			c0.82,1.096,1.506,2.019,2.021,2.723C140.804-12.08,158.083,9.051,150.097,18.322z"/>
	</g>
</symbol>
<g id="Шар_1">
	<g id="Новий_символ_3_1_">
		<g id="Новий_символ_2">
			<g id="Новий_символ_5_">
			</g>
			<g id="Новий_символ_2_">
			</g>
			<g id="Новий_символ_1_">
			</g>
			<g id="Новий_символ_6_">
			</g>
			<g id="Новий_символ_7_">
			</g>
			<g id="Новий_символ_3_">
			</g>
			<g id="Новий_символ">
			</g>
		</g>
		<g>
			<g>
				<path fill="#8A1002" d="M140.738,75.354c1.572,0,3.146,0,4.719,0c0,0-0.885-1.879-1.027-6.799
					c4.939,0.137,6.824,1.002,6.824,1.002c0-1.571,0-3.144,0-4.717c0,0-1.887,0.887-6.824,1.027
					c0.141-4.939,1.027-6.823,1.027-6.823c-1.572,0-3.146,0-4.719,0c0,0,0.867,1.884,1.004,6.822
					c-4.922-0.143-6.799-1.026-6.799-1.026c0,1.573,0,3.146,0,4.717c0,0,1.877-0.862,6.799-1.001
					C141.602,73.475,140.738,75.354,140.738,75.354z"/>
				<path fill="#8A1002" d="M202.303,98.77c0.016,14.416-0.023,25.379-0.01,39.794c0.018,17.063,0,51.972-0.004,59.142
					c-6.746-1.732-13.773-3.228-20.645-3.438c-13.176-0.404-28.043,3.317-38.363,12.251c-0.039,0.033-0.076,0.068-0.113,0.103
					c-9.648-8.441-23.203-12.137-35.561-12.295c-7.877-0.102-15.918,1.439-23.674,3.175c-0.012-14.068-0.025-28.752-0.037-42.785
					c-0.016-18.744,0.039-54.889,0.039-55.944c-0.002-0.932-3.682-2.312-3.682-1.381c0.014,14.422,0.025,26.771,0.039,41.193
					c0.016,18.743-0.039,59.032-0.039,60.088c0,0.84,2.354,0.663,2.791,0.558c7.107-1.709,14.566-2.438,21.855-2.567
					c12.76-0.229,27.063,2.557,36.537,11.904c0.719,0.71,2.742,0.71,3.461,0c9.609-9.482,23.793-12.317,36.746-11.971
					c7.205,0.193,14.617,1.088,21.598,2.951c0.436,0.117,2.701,0.275,2.701-0.557c-0.016-14.416-0.029-29.522-0.043-43.938
					c-0.02-18.813,0.043-56.564,0.043-57.662C205.941,96.457,202.303,97.84,202.303,98.77z"/>
				<path fill="#8A1002" d="M99.285,86.027c6.73-5.107,11.592-10.76,20.094-10.76c4.344,0,7.248,4.429,7.248,7.135
					c0,1.885-0.506,5.682-4.709,5.682c-3.676,0-4.74-4.473-3.246-6.946c-5.422,0-5.713,8.396,3.313,8.396
					c3.865,0,7.848-2.244,7.848-6.904c0-3.135-2.225-8.606-10.469-8.606c-9.039,0-14.814,4.614-22.115,10.084
					c-7.537,5.647-14.348,7.185-23.635,6.235v1.379c0.008,0.001,0.014,0.002,0.021,0.003c-0.002,15.388-0.008,96.708-0.008,97.284
					c0,0.931,3.59,2.313,3.59,1.381c0.002-13.92,0.006-90.09,0.008-98.24C85.215,92.747,92.855,90.906,99.285,86.027z"/>
				<path fill="#8A1002" d="M212.443,90.343c-9.287,0.949-16.096-0.588-23.633-6.235c-7.301-5.47-13.078-10.084-22.117-10.084
					c-8.242,0-10.467,5.472-10.467,8.606c0,4.66,3.98,6.904,7.846,6.904c9.025,0,8.734-8.396,3.313-8.396
					c1.496,2.474,0.432,6.946-3.246,6.946c-4.201,0-4.707-3.797-4.707-5.682c0-2.706,2.904-7.135,7.246-7.135
					c8.504,0,13.363,5.652,20.096,10.76c6.428,4.879,14.068,6.72,22.061,6.122c0,8.15,0.006,84.32,0.006,98.24
					c0,0.932,3.59-0.45,3.59-1.381c0-0.576-0.006-81.896-0.006-97.284c0.006-0.001,0.014-0.002,0.02-0.003V90.343z"/>
				<path fill="#8A1002" d="M128.305,136.008c-2.223-4.177-10.027-20.198-13.361-26.998c-2.242-4.573-5.299-6.311-7.619-6.86
					c-1.594-0.378-9.48,0.006-11.348,0.012v0.126c2.395,1.012,7.166,6.307,9.016,10.308c1.244,2.692,8.711,17.998,11.301,22.904
					c2.578,4.88,8.242,6.655,10.645,6.95c1.104,0.137,2.252,0.133,3.395,0.107c-11.646,15.367-22.375,29.565-21.154,27.881
					c-3.813,4.689-7.447,6.573-11.006,7.652l0.018,0.668c9.305,0,15.92-6.853,17.072-8.349c2.025-2.634,12.332-16.426,23.002-30.547
					v33.354h9.205v-43.768c1.967,1.581,4.264,4.064,5.922,7.045c0.891,1.6,5.387,12.146,8.35,16.236
					c2.488,3.436,6.34,3.976,9.965,3.982c-6.742,8.889-13.654,17.988-18.443,24.229c-1.643,2.14-3.299,4.212-5.137,6.138
					c-0.73,0.767-4.566,5.119-8.025,5.119c-3.797,0-6.229-2.969-6.229-5.911c0-3.192,1.727-6.515,5.48-7.35
					c3.564-0.792,6.498,1.104,7.047,1.669c0,0,3.602-1.013,3.604-1.045c-2.051-1.832-7.609-2.907-10.881-2.35
					c-5.063,0.863-9.521,4.243-9.521,9.378c0,3.455,3.48,7.162,10.441,7.162c8.371,0,13.92-6.384,15.764-8.385
					c0.898-0.975,21.611-28.487,33.467-44.039h-0.02c0.283-0.379,0.52-0.697,0.697-0.94c1.682-2.294,7.646-9.588,4.891-12.788
					l-6.918-0.006v0.387c3.523,2.028-1.752,9.709-4.496,13.348h-0.049c-2.941,3.875-6.309,8.313-9.775,12.885
					c-0.787-0.782-1.303-1.747-1.842-2.767c-1.641-3.111-6.268-12.176-8.664-17.154c-1.59-3.303-4.689-6.523-7.826-6.687
					c-2.582-0.135-5.205,0.104-7.801,0.13v-0.005c4.861-6.376,9.287-12.119,12.418-16.05c1.682-2.11,3.299-4.212,5.137-6.139
					c0.73-0.766,4.566-5.119,8.025-5.119c3.797,0,6.229,2.969,6.229,5.911c0,3.193-1.727,6.516-5.48,7.35
					c-3.564,0.793-6.498-1.104-7.047-1.668c0,0-3.602,1.012-3.604,1.045c2.051,1.831,7.609,2.907,10.881,2.35
					c5.063-0.863,9.521-4.243,9.521-9.378c0-3.455-3.48-7.162-10.441-7.162c-8.371,0-13.92,6.384-15.764,8.385
					c-0.641,0.696-4.545,5.761-9.875,12.747V82.338h-9.205V132.1c-2.021,2.664-4.094,5.396-6.154,8.113
					C130.572,139.201,129.275,137.833,128.305,136.008z"/>
			</g>
			<g>
				<path fill="#8A1002" d="M64.961,200.7l3.42,3.943l-0.553,0.479c-0.265-0.203-0.521-0.308-0.771-0.317s-0.549,0.137-0.896,0.438
					l-4.369,3.788c-1.472,1.276-2.216,2.4-2.231,3.373c-0.016,0.973,0.422,1.974,1.315,3.004c0.978,1.126,1.946,1.738,2.907,1.835
					s1.953-0.297,2.975-1.184l5.09-4.412c0.285-0.248,0.436-0.504,0.447-0.769c0.013-0.264-0.09-0.584-0.308-0.959l0.552-0.479
					l2.316,2.672l-0.552,0.479c-0.321-0.267-0.618-0.409-0.892-0.425c-0.274-0.016-0.549,0.095-0.825,0.334l-5.028,4.359
					c-0.816,0.689-1.57,1.151-2.264,1.385c-0.691,0.234-1.389,0.288-2.088,0.161c-0.759-0.131-1.484-0.405-2.176-0.821
					s-1.326-0.946-1.903-1.592c-0.753-0.869-1.313-1.737-1.68-2.604s-0.521-1.72-0.462-2.561c0.034-0.725,0.227-1.375,0.577-1.952
					c0.351-0.576,0.827-1.125,1.431-1.648l5.074-4.399c0.337-0.292,0.523-0.563,0.56-0.81s-0.037-0.527-0.218-0.84L64.961,200.7z"/>
				<path fill="#8A1002" d="M79.797,216.636l3.239,2.391l0.999,11.957l0.188,0.139l4.193-5.681c0.217-0.294,0.3-0.581,0.251-0.861
					c-0.05-0.28-0.226-0.574-0.528-0.881l0.434-0.587l2.932,2.163l-0.434,0.588c-0.375-0.209-0.708-0.291-0.998-0.245
					s-0.539,0.211-0.748,0.494l-7.264,9.844l-0.909-0.67l-1.201-14.552l-0.171-0.126l-5.361,7.264
					c-0.209,0.283-0.296,0.568-0.26,0.855c0.035,0.287,0.214,0.583,0.536,0.887l-0.434,0.588l-2.931-2.163l0.434-0.587
					c0.375,0.209,0.707,0.291,0.998,0.244c0.289-0.046,0.539-0.211,0.748-0.494l6.096-8.26c0.253-0.368,0.359-0.692,0.32-0.973
					c-0.039-0.282-0.227-0.529-0.563-0.744L79.797,216.636z"/>
				<path fill="#8A1002" d="M97.66,228.562l4.752,2.358l-0.324,0.654c-0.33-0.103-0.621-0.108-0.873-0.014
					c-0.253,0.093-0.473,0.343-0.658,0.75l-4.475,9.013c-0.217,0.406-0.286,0.738-0.208,0.995c0.078,0.258,0.261,0.481,0.548,0.668
					l-0.324,0.654l-4.752-2.358l0.325-0.654c0.305,0.121,0.588,0.133,0.851,0.037c0.262-0.096,0.494-0.351,0.699-0.762l4.475-9.014
					c0.186-0.406,0.24-0.741,0.166-1.005c-0.076-0.264-0.251-0.487-0.525-0.668L97.66,228.562z"/>
				<path fill="#8A1002" d="M108.121,233.662l5.91,1.723l-0.216,0.74c-0.405-0.132-0.753-0.159-1.041-0.082
					c-0.289,0.078-0.476,0.26-0.559,0.545c-0.034,0.117-0.052,0.256-0.056,0.417c-0.002,0.161,0.019,0.319,0.063,0.472l1.702,8.548
					l0.307,0.089l5.741-6.526c0.135-0.158,0.229-0.278,0.283-0.361c0.053-0.083,0.094-0.169,0.12-0.261
					c0.075-0.259,0.012-0.51-0.19-0.753c-0.204-0.242-0.517-0.425-0.939-0.548l0.205-0.701l4.11,1.199l-0.204,0.701
					c-0.432-0.042-0.806,0.022-1.121,0.191c-0.315,0.169-0.648,0.448-0.999,0.839l-8.706,9.846l-0.777-0.227l-2.586-13.202
					c-0.129-0.573-0.286-0.999-0.471-1.278c-0.186-0.279-0.445-0.503-0.781-0.671L108.121,233.662z"/>
				<path fill="#8A1002" d="M129.571,239.078l10.521,0.719c0.326,0.022,0.555,0.014,0.685-0.024
					c0.131-0.039,0.236-0.129,0.317-0.273l0.531,0.037l-0.247,3.623l-0.765-0.052c-0.175-0.785-0.484-1.365-0.928-1.741
					c-0.444-0.376-1.227-0.602-2.346-0.679l-3.549-0.243l-0.349,5.101l2.359,0.161c0.637,0.057,1.106-0.007,1.411-0.194
					c0.305-0.186,0.473-0.505,0.504-0.957l0.765,0.052l-0.249,3.644l-0.765-0.052c-0.014-0.428-0.138-0.76-0.37-0.996
					s-0.548-0.368-0.944-0.396l-2.784-0.19l-0.399,5.85l5.101,0.349c0.779,0.053,1.486-0.132,2.119-0.557
					c0.635-0.424,1.048-1.002,1.24-1.735l0.766,0.053l-0.245,3.583l-13.347-0.912l0.049-0.729c0.356-0.003,0.634-0.103,0.832-0.299
					c0.199-0.196,0.32-0.517,0.365-0.961l0.686-10.04c0.017-0.446-0.061-0.773-0.231-0.981s-0.433-0.352-0.782-0.43L129.571,239.078
					z"/>
				<path fill="#8A1002" d="M149.685,239.758l6.204-0.855c1.575-0.217,2.802-0.209,3.681,0.024c0.878,0.234,1.572,0.698,2.084,1.392
					c0.162,0.237,0.296,0.485,0.403,0.743s0.18,0.521,0.217,0.79c0.118,0.857-0.034,1.626-0.456,2.305
					c-0.423,0.68-1.029,1.217-1.82,1.613l0.006,0.204l3.681,4.387c0.243,0.308,0.492,0.526,0.746,0.655
					c0.254,0.128,0.553,0.19,0.896,0.184l0.1,0.723l-4.052,0.559l-4.327-5.179c-0.222-0.256-0.448-0.443-0.68-0.562
					s-0.572-0.146-1.022-0.084l-0.4,0.055l0.618,4.482c0.066,0.482,0.184,0.787,0.352,0.914c0.168,0.127,0.456,0.217,0.865,0.27
					l0.1,0.723l-5.255,0.725l-0.1-0.724c0.418-0.194,0.679-0.38,0.783-0.559s0.134-0.482,0.089-0.914l-1.375-9.969
					c-0.057-0.415-0.163-0.694-0.319-0.836c-0.156-0.142-0.462-0.257-0.918-0.344L149.685,239.758z M154.052,240.241l0.745,5.407
					l1.857-0.256c0.76-0.104,1.332-0.426,1.717-0.964c0.384-0.538,0.522-1.202,0.413-1.992c-0.142-0.923-0.487-1.582-1.036-1.977
					c-0.549-0.395-1.353-0.527-2.409-0.395L154.052,240.241z"/>
				<path fill="#8A1002" d="M178.805,233.363l1.083,3.125l-0.784,0.272c-0.517-0.751-1.157-1.255-1.923-1.513
					c-0.766-0.257-1.591-0.232-2.477,0.075c-0.698,0.242-1.188,0.619-1.468,1.131c-0.281,0.513-0.311,1.002-0.088,1.469
					c0.186,0.451,0.527,0.773,1.022,0.966s1.163,0.288,2.003,0.282c2.422,0.005,4.059,0.239,4.911,0.702
					c0.852,0.463,1.441,1.168,1.77,2.113c0.443,1.278,0.319,2.492-0.372,3.64c-0.691,1.149-1.735,1.965-3.131,2.449
					c-0.309,0.107-0.61,0.19-0.905,0.25s-1.013,0.136-2.152,0.231c-0.375,0.044-0.667,0.124-0.875,0.239
					c-0.208,0.115-0.321,0.276-0.34,0.483c-0.009,0.018-0.013,0.029-0.01,0.036c0.002,0.006,0.005,0.016,0.01,0.029l-0.624,0.216
					l-1.385-3.278l0.785-0.272c0.597,0.595,1.352,1.005,2.265,1.233s1.779,0.199,2.598-0.085c0.577-0.2,1.071-0.497,1.484-0.89
					c0.412-0.393,0.684-0.834,0.814-1.324c0.045-0.173,0.057-0.366,0.035-0.581c-0.021-0.214-0.068-0.445-0.139-0.693
					c-0.063-0.179-0.183-0.352-0.36-0.519c-0.179-0.167-0.401-0.312-0.669-0.434c-0.259-0.096-0.568-0.165-0.928-0.205
					c-0.36-0.04-0.941-0.071-1.746-0.092c-1.729-0.002-3.033-0.219-3.912-0.651c-0.879-0.432-1.489-1.141-1.83-2.125
					c-0.363-1.048-0.293-2.089,0.213-3.124c0.506-1.034,1.369-1.763,2.591-2.187c0.402-0.14,0.803-0.228,1.203-0.267
					c0.4-0.038,0.844-0.027,1.33,0.033c0.447,0.074,0.768,0.067,0.962-0.022c0.195-0.089,0.313-0.248,0.354-0.477L178.805,233.363z"
					/>
				<path fill="#8A1002" d="M186.131,229.636l4.676-2.503l0.345,0.644c-0.274,0.208-0.447,0.443-0.518,0.703
					c-0.07,0.26,0.006,0.583,0.229,0.971l4.749,8.872c0.205,0.412,0.435,0.661,0.69,0.747c0.255,0.086,0.543,0.066,0.862-0.059
					l0.345,0.644l-4.677,2.503l-0.345-0.644c0.275-0.178,0.449-0.402,0.523-0.671c0.073-0.269,0.001-0.606-0.216-1.012l-4.75-8.872
					c-0.223-0.387-0.464-0.626-0.723-0.718c-0.258-0.092-0.541-0.078-0.848,0.04L186.131,229.636z"/>
				<path fill="#8A1002" d="M196.129,223.688l0.675-0.521c0.212-0.027,0.412-0.088,0.6-0.182s0.405-0.236,0.652-0.427l7.688-5.939
					c0.222-0.154,0.402-0.315,0.542-0.483c0.14-0.167,0.267-0.363,0.38-0.588l0.658-0.508l2.232,2.89l-0.607,0.469
					c-0.755-0.374-1.467-0.546-2.135-0.517c-0.669,0.029-1.295,0.27-1.88,0.721l-1.112,0.859l6.921,8.959
					c0.195,0.276,0.41,0.431,0.643,0.465s0.535-0.033,0.907-0.202l0.447,0.578l-4.198,3.243l-0.446-0.578
					c0.263-0.357,0.399-0.638,0.412-0.844c0.012-0.205-0.086-0.442-0.293-0.709l-6.921-8.959l-0.944,0.729
					c-0.708,0.547-1.176,1.144-1.403,1.789c-0.229,0.646-0.22,1.371,0.023,2.174l-0.607,0.469L196.129,223.688z"/>
				<path fill="#8A1002" d="M211.556,211.568l4.166-4.875l0.556,0.475c-0.209,0.307-0.324,0.545-0.344,0.715
					c-0.021,0.169,0.025,0.302,0.139,0.399c0.082,0.071,0.182,0.127,0.296,0.169c0.115,0.042,0.241,0.057,0.378,0.042l5.051,0.085
					l0.235-0.275l-1.272-4.506c-0.072-0.249-0.12-0.401-0.143-0.458c-0.022-0.057-0.05-0.098-0.08-0.125
					c-0.165-0.141-0.346-0.174-0.543-0.1c-0.197,0.075-0.448,0.271-0.755,0.587l-0.556-0.475l2.588-3.028l0.556,0.475
					c-0.149,0.321-0.241,0.616-0.276,0.885c-0.034,0.27-0.014,0.567,0.063,0.895l1.544,6.812l3.794,3.242
					c0.288,0.246,0.529,0.359,0.725,0.339s0.473-0.147,0.833-0.381l0.555,0.475l-3.487,4.081l-0.556-0.475
					c0.201-0.277,0.284-0.561,0.249-0.853c-0.036-0.292-0.167-0.544-0.395-0.757l-3.81-3.255l-6.95-0.112
					c-0.53-0.004-0.94,0.028-1.23,0.098c-0.291,0.069-0.544,0.189-0.761,0.359L211.556,211.568z"/>
			</g>
			<g>
				<g>
					<path fill="#8A1002" d="M38.483,178.799l-1.271-5.011l0.708-0.18c0.145,0.297,0.326,0.505,0.545,0.624s0.551,0.122,0.996,0.008
						l5.605-1.422c1.888-0.479,3.058-1.146,3.511-2.001c0.452-0.855,0.513-1.937,0.181-3.246c-0.363-1.432-0.951-2.404-1.766-2.916
						c-0.813-0.512-1.875-0.602-3.188-0.269l-6.527,1.657c-0.367,0.093-0.616,0.254-0.746,0.483
						c-0.131,0.229-0.184,0.558-0.158,0.987l-0.708,0.18l-0.862-3.395l0.709-0.18c0.166,0.379,0.367,0.636,0.604,0.771
						c0.237,0.136,0.532,0.159,0.887,0.069l6.449-1.637c1.039-0.249,1.921-0.324,2.644-0.225c0.724,0.1,1.368,0.36,1.937,0.782
						c0.617,0.453,1.141,1.017,1.569,1.691s0.757,1.426,0.98,2.254c0.28,1.104,0.388,2.122,0.325,3.052
						c-0.064,0.931-0.313,1.755-0.744,2.475c-0.356,0.627-0.821,1.119-1.395,1.475c-0.572,0.356-1.244,0.632-2.019,0.828
						l-6.509,1.652c-0.433,0.109-0.721,0.267-0.865,0.47c-0.143,0.203-0.204,0.484-0.184,0.841L38.483,178.799z"/>
					<path fill="#8A1002" d="M33.516,154.924l-0.186-5.25l0.73-0.026c0.065,0.335,0.2,0.591,0.402,0.767s0.526,0.249,0.972,0.219
						l4.501-0.159l-0.005-0.147l-4.551-5.287c-0.183-0.205-0.351-0.368-0.505-0.489c-0.152-0.122-0.29-0.18-0.412-0.176
						c-0.147,0.02-0.27,0.115-0.365,0.288s-0.158,0.407-0.188,0.703l-0.73,0.026l-0.181-5.124l0.729-0.026
						c0.217,0.767,0.401,1.299,0.555,1.596c0.152,0.297,0.355,0.597,0.609,0.897l3.492,4.036l6.07-4.584
						c0.674-0.488,1.139-0.909,1.397-1.263c0.259-0.354,0.46-0.787,0.604-1.298l0.729-0.026l0.234,6.643l-0.73,0.025
						c-0.001-0.436-0.134-0.751-0.398-0.947c-0.264-0.194-0.587-0.151-0.97,0.129l-4.927,3.693l1.082,1.277l4.016-0.141
						c0.459-0.002,0.785-0.098,0.974-0.288c0.19-0.189,0.299-0.454,0.327-0.792l0.73-0.026l0.185,5.251l-0.729,0.025
						c-0.039-0.322-0.162-0.575-0.372-0.757s-0.544-0.266-1.003-0.25l-10.058,0.354c-0.445,0.03-0.767,0.14-0.963,0.33
						c-0.196,0.19-0.309,0.447-0.338,0.772L33.516,154.924z"/>
					<path fill="#8A1002" d="M33.678,131.383l1.035-6.116c0.263-1.553,0.637-2.709,1.122-3.47c0.485-0.759,1.136-1.277,1.95-1.553
						c0.275-0.082,0.551-0.135,0.83-0.159c0.278-0.024,0.551-0.014,0.817,0.031c0.854,0.145,1.542,0.518,2.063,1.12
						c0.522,0.602,0.854,1.336,0.996,2.202l0.196,0.055l5.284-2.166c0.367-0.138,0.648-0.308,0.848-0.509s0.346-0.466,0.443-0.792
						l0.72,0.122l-0.677,3.995l-6.232,2.54c-0.311,0.133-0.557,0.291-0.738,0.474s-0.311,0.497-0.386,0.94l-0.067,0.396l4.461,0.755
						c0.48,0.082,0.807,0.062,0.978-0.059c0.171-0.121,0.343-0.366,0.516-0.737l0.72,0.122l-0.877,5.18l-0.72-0.122
						c-0.061-0.452-0.161-0.755-0.3-0.907s-0.42-0.271-0.845-0.357l-9.921-1.68c-0.414-0.07-0.712-0.052-0.895,0.052
						c-0.182,0.105-0.383,0.36-0.603,0.765L33.678,131.383z M35.441,127.402l5.381,0.911l0.311-1.831
						c0.127-0.749-0.009-1.385-0.407-1.91c-0.397-0.523-0.991-0.853-1.778-0.985c-0.922-0.142-1.654-0.013-2.195,0.388
						c-0.541,0.401-0.906,1.12-1.096,2.158L35.441,127.402z"/>
					<path fill="#8A1002" d="M50.57,115.019c0.033-0.305-0.031-0.628-0.194-0.973c-0.163-0.343-0.394-0.688-0.694-1.033l-6.499-7.14
						c-0.133-0.143-0.284-0.267-0.454-0.371c-0.169-0.104-0.371-0.21-0.605-0.318c-0.15-0.06-0.292-0.013-0.425,0.139
						c-0.132,0.152-0.237,0.364-0.315,0.636l-0.68-0.268c0.174-0.551,0.257-1.066,0.249-1.546c-0.007-0.479-0.105-0.922-0.294-1.329
						l0.277-0.707l12.371-1.07c0.809-0.06,1.46-0.154,1.955-0.285c0.494-0.13,0.884-0.335,1.169-0.616l0.68,0.268l-2.211,5.615
						l-0.68-0.268c0.136-0.309,0.138-0.607,0.003-0.895c-0.134-0.287-0.352-0.49-0.654-0.609c-0.05-0.02-0.15-0.033-0.301-0.039
						s-0.268-0.011-0.354-0.015l-1.467,0.125l-2.466,6.263l0.913,0.949c0.45,0.48,0.85,0.675,1.197,0.585s0.68-0.405,0.994-0.947
						l0.68,0.268l-1.516,3.848L50.57,115.019z M43.947,105.04l4.189,4.53l0.076,0.03l2.01-5.104l-0.057-0.022l-6.188,0.489
						L43.947,105.04z"/>
					<path fill="#8A1002" d="M47.986,87.97l2.723-4.494l0.625,0.379c-0.129,0.316-0.156,0.604-0.084,0.862
						c0.073,0.258,0.305,0.497,0.693,0.716l8.605,5.215c0.387,0.25,0.711,0.348,0.973,0.293c0.264-0.055,0.499-0.216,0.709-0.484
						l0.625,0.378l-2.723,4.494l-0.625-0.378c0.145-0.291,0.18-0.57,0.104-0.837c-0.074-0.268-0.309-0.521-0.702-0.759l-8.606-5.215
						c-0.389-0.219-0.718-0.303-0.986-0.252c-0.268,0.051-0.503,0.205-0.705,0.46L47.986,87.97z"/>
					<path fill="#8A1002" d="M55.82,75.808l2.615-3.011l11.949,0.01l0.152-0.175l-5.33-4.63c-0.275-0.239-0.555-0.346-0.836-0.321
						c-0.282,0.025-0.587,0.175-0.915,0.449l-0.552-0.479l2.366-2.724l0.552,0.479c-0.236,0.354-0.342,0.677-0.317,0.969
						s0.17,0.552,0.435,0.783l9.237,8.022l-0.733,0.844l-14.542-0.026l-0.139,0.16l6.816,5.92c0.266,0.231,0.542,0.341,0.829,0.329
						c0.287-0.011,0.595-0.164,0.922-0.458l0.551,0.479l-2.365,2.724l-0.552-0.479c0.235-0.354,0.342-0.677,0.317-0.968
						c-0.025-0.291-0.17-0.552-0.436-0.783l-7.75-6.731c-0.347-0.282-0.661-0.415-0.943-0.4c-0.282,0.016-0.543,0.182-0.78,0.497
						L55.82,75.808z"/>
					<path fill="#8A1002" d="M72.113,58.833l4.069-3.323l0.462,0.566c-0.227,0.255-0.35,0.517-0.367,0.784
						c-0.018,0.268,0.12,0.57,0.414,0.907l6.365,7.794c0.279,0.365,0.553,0.566,0.818,0.602c0.266,0.037,0.541-0.037,0.828-0.219
						l0.463,0.566l-4.069,3.323l-0.462-0.566c0.233-0.226,0.359-0.477,0.378-0.754c0.019-0.277-0.117-0.594-0.408-0.95l-6.365-7.794
						c-0.293-0.336-0.575-0.526-0.845-0.567s-0.543,0.024-0.819,0.198L72.113,58.833z"/>
					<path fill="#8A1002" d="M89.406,62.172c0.218-0.216,0.372-0.508,0.463-0.877c0.09-0.369,0.129-0.783,0.113-1.24l-0.539-9.64
						c-0.012-0.195-0.051-0.386-0.117-0.574c-0.065-0.188-0.155-0.397-0.27-0.628c-0.079-0.142-0.219-0.195-0.417-0.161
						s-0.413,0.132-0.646,0.293l-0.358-0.636c0.482-0.318,0.872-0.666,1.169-1.042c0.296-0.376,0.499-0.782,0.609-1.217l0.662-0.373
						l10.273,6.974c0.664,0.464,1.229,0.802,1.695,1.012c0.467,0.211,0.898,0.298,1.297,0.259l0.358,0.637l-5.258,2.961
						l-0.358-0.636c0.301-0.154,0.49-0.384,0.566-0.692c0.078-0.307,0.037-0.603-0.123-0.885c-0.026-0.047-0.096-0.121-0.209-0.22
						c-0.112-0.1-0.201-0.178-0.266-0.235l-1.217-0.828l-5.864,3.303l0.109,1.312c0.047,0.657,0.233,1.06,0.561,1.21
						s0.782,0.114,1.368-0.107l0.359,0.636l-3.604,2.03L89.406,62.172z M90.563,50.251l0.393,6.159l0.041,0.071l4.779-2.692
						l-0.029-0.053l-5.11-3.525L90.563,50.251z"/>
					<path fill="#8A1002" d="M104.77,39.246l3.816-1.155l10.107,6.375l0.223-0.067l-2.045-6.757
						c-0.105-0.35-0.285-0.589-0.537-0.717s-0.59-0.164-1.014-0.107l-0.211-0.699l3.453-1.045l0.212,0.699
						c-0.388,0.174-0.649,0.391-0.784,0.65c-0.135,0.26-0.15,0.558-0.049,0.895l3.543,11.71l-1.07,0.324l-12.293-7.77l-0.202,0.062
						l2.614,8.641c0.102,0.337,0.277,0.577,0.527,0.72c0.248,0.144,0.59,0.179,1.023,0.104l0.211,0.699l-3.453,1.044l-0.212-0.699
						c0.388-0.174,0.649-0.391,0.784-0.651c0.135-0.259,0.15-0.558,0.049-0.895l-2.973-9.826c-0.143-0.423-0.338-0.703-0.585-0.84
						s-0.556-0.136-0.925,0.004L104.77,39.246z"/>
					<path fill="#8A1002" d="M177.021,49.516l0.399,0.946c-1.276,0.535-2.409,0.849-3.398,0.941c-0.99,0.091-1.949-0.001-2.879-0.28
						c-2.103-0.629-3.604-1.817-4.506-3.563c-0.901-1.745-1.049-3.629-0.443-5.65c0.609-2.034,1.748-3.507,3.416-4.419
						c1.669-0.912,3.459-1.082,5.373-0.509c0.404,0.121,0.774,0.257,1.111,0.407s0.685,0.336,1.045,0.557
						c0.306,0.205,0.551,0.355,0.734,0.453c0.184,0.097,0.358,0.164,0.523,0.199c0.05,0.029,0.117,0.039,0.201,0.028
						s0.191-0.038,0.322-0.083c0.03-0.005,0.063-0.016,0.099-0.034c0.034-0.018,0.069-0.036,0.104-0.053l0.728,0.218l-0.96,3.207
						l-0.728-0.218c-0.064-0.768-0.392-1.487-0.983-2.158s-1.319-1.137-2.182-1.395c-0.31-0.093-0.634-0.14-0.971-0.142
						c-0.337-0.002-0.691,0.054-1.063,0.168c-0.758,0.225-1.395,0.673-1.911,1.344c-0.518,0.671-1.041,1.895-1.573,3.669
						c-0.566,1.892-0.631,3.38-0.191,4.464c0.438,1.084,1.405,1.851,2.901,2.299c0.7,0.21,1.44,0.287,2.222,0.231
						C175.19,50.086,176.061,49.877,177.021,49.516z"/>
					<path fill="#8A1002" d="M184.252,54.85c0.297,0.078,0.627,0.063,0.991-0.046s0.739-0.286,1.126-0.531l8.035-5.353
						c0.161-0.109,0.306-0.24,0.435-0.392s0.264-0.335,0.405-0.551c0.081-0.141,0.057-0.288-0.073-0.441s-0.324-0.29-0.581-0.408
						l0.367-0.631c0.519,0.254,1.016,0.414,1.491,0.479c0.475,0.064,0.927,0.034,1.358-0.091l0.656,0.381l-0.8,12.391
						c-0.063,0.808-0.067,1.466-0.013,1.975s0.199,0.925,0.435,1.249l-0.367,0.631l-5.219-3.029l0.366-0.632
						c0.285,0.182,0.58,0.228,0.884,0.138c0.305-0.089,0.538-0.274,0.701-0.555c0.026-0.046,0.055-0.144,0.083-0.292
						c0.029-0.147,0.052-0.263,0.068-0.348l0.096-1.469l-5.821-3.379l-1.075,0.76c-0.542,0.374-0.795,0.739-0.758,1.096
						c0.036,0.357,0.298,0.732,0.786,1.125l-0.366,0.632l-3.577-2.076L184.252,54.85z M195.112,49.8l-5.107,3.462l-0.041,0.07
						l4.744,2.754l0.031-0.053l0.446-6.191L195.112,49.8z"/>
					<path fill="#8A1002" d="M213.181,57.125l0.616,0.578c0.059,0.204,0.149,0.39,0.271,0.56c0.12,0.169,0.294,0.359,0.52,0.571
						l7.018,6.582c0.186,0.193,0.372,0.344,0.559,0.454c0.186,0.11,0.398,0.202,0.637,0.277l0.6,0.563l-2.498,2.664l-0.554-0.52
						c0.251-0.803,0.311-1.53,0.18-2.181c-0.131-0.652-0.464-1.228-0.997-1.729l-1.016-0.953l-7.745,8.257
						c-0.241,0.237-0.361,0.473-0.358,0.707c0.002,0.234,0.114,0.52,0.337,0.859l-0.5,0.533l-3.832-3.594l0.5-0.533
						c0.392,0.2,0.688,0.289,0.893,0.267s0.421-0.156,0.652-0.403l7.745-8.257l-0.861-0.808c-0.646-0.606-1.305-0.969-1.975-1.087
						c-0.671-0.118-1.382,0.008-2.134,0.377l-0.554-0.52L213.181,57.125z"/>
					<path fill="#8A1002" d="M233.274,79.76l-0.609,0.403c-0.212-0.248-0.453-0.396-0.721-0.446
						c-0.269-0.05-0.544,0.018-0.826,0.205l-3.721,2.464l4.054,6.123l3.721-2.464c0.271-0.179,0.439-0.396,0.506-0.651
						c0.066-0.255,0.029-0.538-0.112-0.85l0.609-0.403l2.9,4.381l-0.609,0.403c-0.255-0.287-0.509-0.444-0.761-0.47
						c-0.253-0.027-0.515,0.05-0.785,0.229l-8.695,5.757c-0.282,0.187-0.453,0.376-0.513,0.567s-0.021,0.502,0.119,0.933
						l-0.608,0.403l-2.89-4.363l0.609-0.403c0.334,0.285,0.604,0.439,0.807,0.465c0.203,0.025,0.446-0.055,0.729-0.242l4.076-2.7
						L226.5,82.98l-4.076,2.699c-0.29,0.175-0.461,0.376-0.513,0.605c-0.052,0.228-0.008,0.532,0.131,0.913l-0.609,0.403l-2.9-4.381
						l0.609-0.403c0.318,0.261,0.584,0.411,0.795,0.448c0.211,0.038,0.458-0.037,0.74-0.224l8.694-5.757
						c0.271-0.179,0.436-0.402,0.494-0.669c0.059-0.266,0.025-0.544-0.101-0.832l0.609-0.403L233.274,79.76z"/>
					<path fill="#8A1002" d="M247.046,106.145c0.705,1.988,0.624,3.894-0.242,5.717c-0.868,1.823-2.271,3.078-4.208,3.766
						c-1.912,0.678-3.771,0.588-5.575-0.271c-1.805-0.86-3.064-2.297-3.779-4.312c-0.72-2.028-0.649-3.942,0.213-5.74
						c0.861-1.798,2.248-3.037,4.16-3.715c1.933-0.701,3.807-0.616,5.623,0.254C245.053,102.713,246.322,104.147,247.046,106.145z
						 M246.032,106.504c-0.502-1.374-1.32-2.173-2.455-2.397c-1.134-0.224-2.731,0.037-4.792,0.783
						c-2.052,0.728-3.442,1.531-4.171,2.41c-0.729,0.878-0.85,2.006-0.36,3.385c0.485,1.365,1.288,2.163,2.41,2.392
						c1.121,0.229,2.708-0.021,4.761-0.749c2.064-0.733,3.467-1.544,4.206-2.433S246.504,107.874,246.032,106.504z"/>
					<path fill="#8A1002" d="M251.844,124.739l0.593,5.263l-0.727,0.082c-0.095-0.357-0.252-0.605-0.471-0.743
						c-0.22-0.138-0.545-0.183-0.976-0.134l-10.987,1.237l0.536,4.759c0.086,0.769,0.395,1.424,0.925,1.966
						c0.531,0.542,1.174,0.841,1.929,0.897l0.085,0.755l-3.568,0.402l-1.451-12.895l0.726-0.082
						c0.066,0.346,0.213,0.599,0.442,0.757c0.229,0.158,0.565,0.219,1.011,0.184l10-1.125c0.416-0.047,0.713-0.162,0.891-0.345
						c0.176-0.183,0.282-0.481,0.317-0.896L251.844,124.739z"/>
					<path fill="#8A1002" d="M253.194,148.714l-0.347,5.242l-0.729-0.048c-0.031-0.34-0.139-0.608-0.322-0.804
						s-0.499-0.301-0.945-0.316l-10.041-0.665c-0.458-0.044-0.791,0.018-0.998,0.188c-0.208,0.169-0.344,0.421-0.406,0.755
						l-0.729-0.048l0.347-5.242l0.729,0.048c0.006,0.325,0.104,0.588,0.294,0.792c0.189,0.203,0.514,0.319,0.973,0.35l10.041,0.665
						c0.446,0.015,0.776-0.062,0.991-0.23c0.215-0.169,0.353-0.414,0.415-0.734L253.194,148.714z"/>
					<path fill="#8A1002" d="M237.448,174.728l-0.929,0.438c-0.587-1.254-0.946-2.373-1.078-3.357
						c-0.133-0.985-0.078-1.947,0.162-2.888c0.543-2.126,1.669-3.675,3.376-4.647c1.707-0.972,3.583-1.196,5.627-0.674
						c2.058,0.526,3.576,1.604,4.556,3.233c0.979,1.629,1.222,3.412,0.728,5.347c-0.105,0.409-0.226,0.785-0.362,1.127
						c-0.137,0.342-0.308,0.698-0.513,1.066c-0.192,0.314-0.333,0.564-0.423,0.752c-0.09,0.187-0.149,0.365-0.178,0.532
						c-0.027,0.051-0.034,0.118-0.021,0.202c0.014,0.083,0.046,0.189,0.097,0.318c0.006,0.031,0.019,0.063,0.038,0.097
						c0.02,0.034,0.038,0.067,0.058,0.102l-0.188,0.736l-3.243-0.829l0.188-0.736c0.764-0.095,1.47-0.452,2.116-1.07
						s1.082-1.364,1.305-2.236c0.08-0.314,0.114-0.639,0.103-0.976s-0.082-0.689-0.211-1.056c-0.256-0.748-0.729-1.366-1.421-1.855
						c-0.692-0.489-1.936-0.963-3.73-1.422c-1.914-0.489-3.403-0.492-4.469-0.01s-1.792,1.48-2.179,2.993
						c-0.181,0.708-0.228,1.451-0.141,2.229C236.804,172.922,237.048,173.783,237.448,174.728z"/>
				</g>
			</g>
			<path fill="#8A1002" d="M96.916,179.442"/>
			<path fill="#8A1002" stroke="#8A1002" stroke-width="0.5871" stroke-miterlimit="10" d="M154.529,191.742"/>
			<path fill="#8A1002" d="M148.197,178.666"/>
		</g>
	</g>
	<g id="Новий_символ_3">
		<g id="Новий_символ_2_1_">
		</g>
	</g>
	<g id="Новий_символ_8_">
	</g>
	<g id="Новий_символ_4_">
	</g>
</g>
<g id="grid" display="none">
</g>
</svg>
